Ladyhawke.1985.720p.BRRip.x264.aac.mp4-anoXmous

Format                           : MPEG-4
Format profile                   : Base Media
Codec ID                         : isom
File size                        : 699 MiB
Duration                         : 2h 1mn
Overall bit rate mode            : Variable
Overall bit rate                 : 808 Kbps


Video
ID                               : 1
Format                           : AVC
Format/Info                      : Advanced Video Codec
Format profile                   : High@L4.1
Format settings, CABAC           : Yes
Format settings, ReFrames        : 4 frames
Codec ID                         : avc1
Codec ID/Info                    : Advanced Video Coding
Duration                         : 2h 1mn
Bit rate                         : 737 Kbps
Maximum bit rate                 : 4 246 Kbps
Width                            : 1 280 pixels
Height                           : 544 pixels
Display aspect ratio             : 2.35:1
Frame rate mode                  : Constant
Frame rate                       : 23.976 fps
Color space                      : YUV
Chroma subsampling               : 4:2:0
Bit depth                        : 8 bits
Scan type                        : Progressive
Bits/(Pixel*Frame)               : 0.044
Stream size                      : 638 MiB (91%)
Writing library                  : x264 core 119 r2106 07efeb4


Audio
ID                               : 2
Format                           : AAC
Format/Info                      : Advanced Audio Codec
Format profile                   : HE-AAC / LC
Codec ID                         : 40
Duration                         : 2h 1mn
Bit rate mode                    : Variable
Bit rate                         : 68.6 Kbps
Maximum bit rate                 : 95.8 Kbps
Channel(s)                       : 2 channels
Channel positions                : Front: L R
Sampling rate                    : 48.0 KHz / 24.0 KHz
Compression mode                 : Lossy
Stream size                      : 59.4 MiB (8%)
Language                         : English

                              SUB !

 Ladyhawke.1985.720p.BRRip.x264.aac.mp4-anoXmous_dan.srt
				                       
 Ladyhawke.1985.720p.BRRip.x264.aac.mp4-anoXmous_eng.srt

 Ladyhawke.1985.720p.BRRip.x264.aac.mp4-anoXmous_fin.srt

 Ladyhawke.1985.720p.BRRip.x264.aac.mp4-anoXmous_nor.srt

 Ladyhawke.1985.720p.BRRip.x264.aac.mp4-anoXmous_swe.srt

 
http://www.imdb.com/title/tt0089457/
